<svg xmlns="http://www.w3.org/2000/svg" width="97" height="99" fill="none"><path fill="#F43F5E" fill-opacity=".8" d="m76.56 13.877-31.312-8.39c-12.243-3.28-22.78 3.108-26.206 15.893l-7.907 29.51C7.719 63.637 13.65 74.435 25.894 77.717l31.311 8.39c12.243 3.28 22.744-3.115 26.16-15.864l7.907-29.509c3.425-12.785-2.47-23.577-14.713-26.857"/><g filter="url(#a)"><path fill="#E31352" fill-opacity=".5" d="m67.17 25.697-19.715-5.282c-7.709-2.066-14.343 1.957-16.5 10.006l-4.979 18.58c-2.15 8.028 1.585 14.826 9.293 16.892l19.715 5.282c7.709 2.066 14.32-1.96 16.47-9.988l4.98-18.58c2.156-8.05-1.555-14.844-9.264-16.91"/></g><g filter="url(#b)"><mask id="d" width="77" height="77" x="0" y="22.053" fill="#000" maskUnits="userSpaceOnUse"><path fill="#fff" d="M0 22.053h77v77H0z"/><path d="M54.616 23.053H22.2C9.525 23.053 1 31.95 1 45.187v30.55c0 13.199 8.525 22.094 21.2 22.094h32.416c12.675 0 21.162-8.895 21.162-22.094v-30.55c0-13.236-8.487-22.134-21.162-22.134"/></mask><path fill="#F43F5E" fill-opacity=".4" d="M54.616 23.053H22.2C9.525 23.053 1 31.95 1 45.187v30.55c0 13.199 8.525 22.094 21.2 22.094h32.416c12.675 0 21.162-8.895 21.162-22.094v-30.55c0-13.236-8.487-22.134-21.162-22.134"/><path fill="url(#c)" d="M54.616 22.053a1 1 0 1 0 0 2zm0 0H22.2v2h32.416zm-32.416 0c-6.58 0-12.152 2.315-16.075 6.412C2.205 32.558 0 38.352 0 45.187h2c0-6.401 2.058-11.673 5.569-15.339 3.507-3.661 8.536-5.795 14.63-5.795zM0 45.187v30.55h2v-30.55zm0 30.55c0 6.817 2.205 12.602 6.125 16.689 3.924 4.09 9.494 6.405 16.075 6.405v-2c-6.095 0-11.124-2.133-14.632-5.79C4.058 87.381 2 82.12 2 75.737zm22.2 23.094h32.416v-2H22.2zm32.416 0c6.58 0 12.142-2.315 16.056-6.406 3.911-4.088 6.106-9.872 6.106-16.688h-2c0 6.383-2.05 11.645-5.55 15.305-3.498 3.656-8.518 5.789-14.612 5.789zm22.162-23.094v-30.55h-2v30.55zm0-30.55c0-6.833-2.194-12.628-6.105-16.721-3.915-4.098-9.477-6.413-16.057-6.413v2c6.094 0 11.113 2.133 14.61 5.794 3.502 3.665 5.552 8.938 5.552 15.34z" mask="url(#d)"/></g><g filter="url(#e)"><path fill="url(#f)" d="M49.642 67.065a3.245 3.245 0 0 1 0 4.595 3.26 3.26 0 0 1-2.319.976c-.822 0-1.645-.3-2.28-.976l-6.656-6.614-6.655 6.614a3.26 3.26 0 0 1-2.318.976c-.822 0-1.682-.34-2.318-.976-1.271-1.268-1.271-3.324 0-4.633l6.655-6.618-6.655-6.658c-1.271-1.268-1.271-3.362 0-4.633 1.271-1.275 3.328-1.275 4.636 0l6.655 6.651 6.618-6.651c1.309-1.275 3.365-1.275 4.636 0 1.272 1.271 1.272 3.365 0 4.633l-6.655 6.658z"/><path stroke="url(#g)" stroke-width=".4" d="M49.5 71.518a3.06 3.06 0 0 1-2.177.918c-.772 0-1.54-.28-2.135-.913l-.004-.005-6.656-6.614-.14-.14-.142.14-6.655 6.614a3.06 3.06 0 0 1-2.177.918c-.77 0-1.579-.32-2.177-.918-1.191-1.188-1.195-3.118.001-4.35l6.654-6.617.142-.141-.141-.142-6.655-6.659c-1.194-1.19-1.194-3.156 0-4.35 1.191-1.195 3.122-1.198 4.354.001l6.654 6.65.142.143.141-.142 6.616-6.65c1.233-1.2 3.163-1.197 4.355-.002 1.193 1.194 1.193 3.16 0 4.35l-6.655 6.66-.142.14.142.142 6.655 6.655a3.045 3.045 0 0 1 0 4.312Z"/></g><defs><linearGradient id="c" x1="12.903" x2="70.631" y1="31.764" y2="93.929" gradientUnits="userSpaceOnUse"><stop stop-color="#fff" stop-opacity=".25"/><stop offset="1" stop-color="#fff" stop-opacity="0"/></linearGradient><linearGradient id="f" x1="48.861" x2="21.624" y1="52.581" y2="53.468" gradientUnits="userSpaceOnUse"><stop stop-color="#fff"/><stop offset="1" stop-color="#fff" stop-opacity=".2"/></linearGradient><linearGradient id="g" x1="30.035" x2="45.65" y1="51.013" y2="70.335" gradientUnits="userSpaceOnUse"><stop stop-color="#fff" stop-opacity=".25"/><stop offset="1" stop-color="#fff" stop-opacity="0"/></linearGradient><filter id="a" width="85.665" height="85.833" x="8.375" y="2.878" color-interpolation-filters="sRGB" filterUnits="userSpaceOnUse"><feFlood flood-opacity="0" result="BackgroundImageFix"/><feBlend in="SourceGraphic" in2="BackgroundImageFix" result="shape"/><feGaussianBlur result="effect1_foregroundBlur_10_830" stdDeviation="8.5"/></filter><filter id="b" width="124.778" height="124.778" x="-24" y="-1.947" color-interpolation-filters="sRGB" filterUnits="userSpaceOnUse"><feFlood flood-opacity="0" result="BackgroundImageFix"/><feGaussianBlur in="BackgroundImageFix" stdDeviation="12"/><feComposite in2="SourceAlpha" operator="in" result="effect1_backgroundBlur_10_830"/><feBlend in="SourceGraphic" in2="effect1_backgroundBlur_10_830" result="shape"/></filter><filter id="e" width="54.452" height="54.474" x="11.143" y="33.162" color-interpolation-filters="sRGB" filterUnits="userSpaceOnUse"><feFlood flood-opacity="0" result="BackgroundImageFix"/><feGaussianBlur in="BackgroundImageFix" stdDeviation="7.5"/><feComposite in2="SourceAlpha" operator="in" result="effect1_backgroundBlur_10_830"/><feColorMatrix in="SourceAlpha" result="hardAlpha" values="0 0 0 0 0 0 0 0 0 0 0 0 0 0 0 0 0 0 127 0"/><feOffset dx="5" dy="5"/><feGaussianBlur stdDeviation="5"/><feColorMatrix values="0 0 0 0 1 0 0 0 0 0.321569 0 0 0 0 0.54902 0 0 0 0.5 0"/><feBlend in2="effect1_backgroundBlur_10_830" result="effect2_dropShadow_10_830"/><feBlend in="SourceGraphic" in2="effect2_dropShadow_10_830" result="shape"/></filter></defs></svg>