<svg xmlns="http://www.w3.org/2000/svg" width="30" height="30" fill="none"><path stroke="#292D32" stroke-linecap="round" stroke-linejoin="round" stroke-width="1.5" d="M11.25 27.5h7.5c6.25 0 8.75-2.5 8.75-8.75v-7.5C27.5 5 25 2.5 18.75 2.5h-7.5C5 2.5 2.5 5 2.5 11.25v7.5C2.5 25 5 27.5 11.25 27.5"/><path stroke="#292D32" stroke-linecap="round" stroke-linejoin="round" stroke-miterlimit="10" stroke-width="1.5" d="M19.462 23.125V18.25M19.462 9.313V6.874M19.462 15.813a3.25 3.25 0 1 0 0-6.5 3.25 3.25 0 0 0 0 6.5M10.538 23.125v-2.437M10.538 11.75V6.875M10.538 20.688a3.25 3.25 0 1 0 0-6.5 3.25 3.25 0 0 0 0 6.5"/></svg>