<svg xmlns="http://www.w3.org/2000/svg" width="80" height="85" fill="none"><path fill="#55A3F0" fill-rule="evenodd" d="M11.587 16.803V50.26h.002l-.003.375c0 18.685 15.315 33.832 34.207 33.832S80 69.32 80 50.635 64.685 16.803 45.793 16.803q-.15 0-.3.002v-.002H25.69a19.6 19.6 0 0 0-1.074-6.43c-.709-2.039-1.748-3.891-3.057-5.451-1.31-1.56-2.864-2.798-4.576-3.643A12.2 12.2 0 0 0 11.587 0zm33.981 63.313C61.933 80.116 75.2 66.95 75.2 50.71S61.933 21.304 45.57 21.304c-16.365 0-29.632 13.166-29.632 29.406s13.267 29.406 29.631 29.406M19.753 9.5a.942.942 0 0 0-.118-1.425L16.01 4.443a.941.941 0 0 0-1.333 1.33l3.07 3.077-3.013 3.045a.941.941 0 1 0 1.339 1.324zM.279 9.496a.94.94 0 0 1-.007-1.331l3.679-3.72A.941.941 0 1 1 5.29 5.77L2.277 8.815l3.07 3.077a.941.941 0 0 1-1.333 1.33L.39 9.59a1 1 0 0 1-.11-.094m71.593 42.382c-.616 13.876-12.157 24.937-26.304 24.937-14.542 0-26.33-11.687-26.33-26.105 0-14.417 11.788-26.105 26.33-26.105 11.912 0 21.976 7.842 25.227 18.604h-11.62c-2.633-4.831-7.706-8.102-13.532-8.102-8.535 0-15.453 7.02-15.453 15.678s6.918 15.678 15.453 15.678c5.95 0 11.115-3.412 13.697-8.413.243.057.574.087 1.006.087 4.704-.06 9.65-2.303 11.526-6.259M59.746 45.31h12.068q.01.174.01.374c0 4.948-4.708 10.134-10.724 10.25v.001l-2.174.029a6 6 0 0 1-.23.005c-2.983 0-5.401-2.385-5.401-5.327 0-2.941 2.418-5.326 5.4-5.326v-.006z" clip-rule="evenodd"/></svg>